<svg width="17" height="17" viewBox="0 0 17 17" fill="none" xmlns="http://www.w3.org/2000/svg">
<path d="M13.9332 6.73344C13.4915 6.73344 13.133 7.09118 13.133 7.53293V10.2366L11.9487 9.05312C11.0788 8.18989 9.67554 8.18989 8.80485 9.05312L8.24461 9.62084L6.26093 7.6289C5.39097 6.76568 3.98772 6.76568 3.11703 7.6289L1.93356 8.82136V4.33349C1.93356 3.89175 2.2913 3.53326 2.73304 3.53326H9.13335C9.57509 3.53326 9.93283 3.17477 9.93283 2.73303C9.93283 2.29129 9.57509 1.93355 9.13335 1.93355H2.73304C1.40784 1.93355 0.33312 3.00752 0.33312 4.33347V14.1087C0.33762 15.3356 1.33059 16.3285 2.55756 16.3331H12.509C12.7257 16.3309 12.941 16.2986 13.1487 16.2371C14.0982 15.9709 14.7529 15.1032 14.7492 14.1169V7.53287C14.7492 7.31837 14.6622 7.11213 14.5092 6.96138C14.3554 6.81138 14.1477 6.72895 13.9332 6.73344ZM2.73304 14.7327C2.2913 14.7327 1.93356 14.3749 1.93356 13.9332V11.0773L4.24574 8.76511H4.24499C4.48873 8.52287 4.88172 8.52287 5.12546 8.76511L11.1013 14.7327L2.73304 14.7327ZM13.133 13.9325V13.9332C13.1277 14.0877 13.0775 14.2377 12.989 14.3652L9.37334 10.733L9.94107 10.1728C10.0566 10.0551 10.2156 9.98832 10.3813 9.98832C10.5463 9.98832 10.7053 10.0551 10.8208 10.1728L13.133 12.5007L13.133 13.9325ZM15.5329 1.93358H14.7327V1.13335C14.7327 0.691612 14.3749 0.33312 13.9332 0.33312C13.4914 0.33312 13.1329 0.691612 13.1329 1.13335V1.93358H12.3327C11.891 1.93358 11.5332 2.29133 11.5332 2.73307C11.5332 3.17481 11.891 3.5333 12.3327 3.5333H13.1329V4.33353C13.1329 4.77527 13.4914 5.13302 13.9332 5.13302C14.3749 5.13302 14.7327 4.77527 14.7327 4.33353V3.5333H15.5329C15.9746 3.5333 16.3331 3.17481 16.3331 2.73307C16.3331 2.29133 15.9746 1.93358 15.5329 1.93358Z" fill="white"/>
</svg>
